<svg xmlns="http://www.w3.org/2000/svg" viewBox="0 0 820 440" width="820" height="440"><path d="M15 362 L805 362" stroke="#c4688d" stroke-width="3.2" stroke-linecap="round" opacity="0.9"></path><rect x="20.0" y="120.0" width="68.6" height="240.0" rx="3" ry="3" fill="#edb2c6" stroke="#c2738f" stroke-width="1.4"></rect><ellipse cx="54.3" cy="307.2" rx="20.6" ry="38.4" fill="#5a3a80" stroke="#3c2660" stroke-width="1"></ellipse><rect x="91.1" y="120.0" width="68.6" height="240.0" rx="3" ry="3" fill="#edb2c6" stroke="#c2738f" stroke-width="1.4"></rect><ellipse cx="125.5" cy="307.2" rx="20.6" ry="38.4" fill="#5a3a80" stroke="#3c2660" stroke-width="1"></ellipse><rect x="162.3" y="120.0" width="68.6" height="240.0" rx="3" ry="3" fill="#edb2c6" stroke="#c2738f" stroke-width="1.4"></rect><ellipse cx="196.6" cy="307.2" rx="20.6" ry="38.4" fill="#5a3a80" stroke="#3c2660" stroke-width="1"></ellipse><rect x="233.4" y="120.0" width="68.6" height="240.0" rx="3" ry="3" fill="#edb2c6" stroke="#c2738f" stroke-width="1.4"></rect><ellipse cx="267.7" cy="307.2" rx="20.6" ry="38.4" fill="#5a3a80" stroke="#3c2660" stroke-width="1"></ellipse><rect x="304.5" y="120.0" width="68.6" height="240.0" rx="3" ry="3" fill="#edb2c6" stroke="#c2738f" stroke-width="1.4"></rect><ellipse cx="338.9" cy="307.2" rx="20.6" ry="38.4" fill="#5a3a80" stroke="#3c2660" stroke-width="1"></ellipse><rect x="375.7" y="120.0" width="68.6" height="240.0" rx="3" ry="3" fill="#edb2c6" stroke="#c2738f" stroke-width="1.4"></rect><ellipse cx="410.0" cy="307.2" rx="20.6" ry="38.4" fill="#5a3a80" stroke="#3c2660" stroke-width="1"></ellipse><rect x="446.8" y="120.0" width="68.6" height="240.0" rx="3" ry="3" fill="#edb2c6" stroke="#c2738f" stroke-width="1.4"></rect><ellipse cx="481.1" cy="307.2" rx="20.6" ry="38.4" fill="#5a3a80" stroke="#3c2660" stroke-width="1"></ellipse><rect x="518.0" y="120.0" width="68.6" height="240.0" rx="3" ry="3" fill="#edb2c6" stroke="#c2738f" stroke-width="1.4"></rect><ellipse cx="552.3" cy="307.2" rx="20.6" ry="38.4" fill="#5a3a80" stroke="#3c2660" stroke-width="1"></ellipse><rect x="589.1" y="120.0" width="68.6" height="240.0" rx="3" ry="3" fill="#edb2c6" stroke="#c2738f" stroke-width="1.4"></rect><ellipse cx="623.4" cy="307.2" rx="20.6" ry="38.4" fill="#5a3a80" stroke="#3c2660" stroke-width="1"></ellipse><rect x="660.2" y="120.0" width="68.6" height="240.0" rx="3" ry="3" fill="#edb2c6" stroke="#c2738f" stroke-width="1.4"></rect><ellipse cx="694.5" cy="307.2" rx="20.6" ry="38.4" fill="#5a3a80" stroke="#3c2660" stroke-width="1"></ellipse><rect x="731.4" y="120.0" width="68.6" height="240.0" rx="3" ry="3" fill="#edb2c6" stroke="#c2738f" stroke-width="1.4"></rect><ellipse cx="765.7" cy="307.2" rx="20.6" ry="38.4" fill="#5a3a80" stroke="#3c2660" stroke-width="1"></ellipse></svg>