<svg xmlns="http://www.w3.org/2000/svg" viewBox="0 0 820 440" width="820" height="440"><path d="M36.4 59.7 L206.5 47.2" stroke="#cb9a70" stroke-width="20" opacity="0.95" stroke-linecap="round" fill="none"></path><path d="M36.4 59.7 L49.2 123.8" stroke="#cb9a70" stroke-width="20" opacity="0.95" stroke-linecap="round" fill="none"></path><path d="M36.4 59.7 L184.4 134.8" stroke="#cb9a70" stroke-width="20" opacity="0.95" stroke-linecap="round" fill="none"></path><path d="M206.5 47.2 L343.0 35.7" stroke="#cb9a70" stroke-width="20" opacity="0.95" stroke-linecap="round" fill="none"></path><path d="M206.5 47.2 L49.2 123.8" stroke="#cb9a70" stroke-width="20" opacity="0.95" stroke-linecap="round" fill="none"></path><path d="M206.5 47.2 L184.4 134.8" stroke="#cb9a70" stroke-width="20" opacity="0.95" stroke-linecap="round" fill="none"></path><path d="M206.5 47.2 L341.0 149.3" stroke="#cb9a70" stroke-width="20" opacity="0.95" stroke-linecap="round" fill="none"></path><path d="M343.0 35.7 L472.8 45.9" stroke="#cb9a70" stroke-width="20" opacity="0.95" stroke-linecap="round" fill="none"></path><path d="M343.0 35.7 L341.0 149.3" stroke="#cb9a70" stroke-width="20" opacity="0.95" stroke-linecap="round" fill="none"></path><path d="M343.0 35.7 L354.9 205.9" stroke="#cb9a70" stroke-width="20" opacity="0.95" stroke-linecap="round" fill="none"></path><path d="M472.8 45.9 L630.6 68.6" stroke="#cb9a70" stroke-width="20" opacity="0.95" stroke-linecap="round" fill="none"></path><path d="M472.8 45.9 L341.0 149.3" stroke="#cb9a70" stroke-width="20" opacity="0.95" stroke-linecap="round" fill="none"></path><path d="M472.8 45.9 L500.1 128.6" stroke="#cb9a70" stroke-width="20" opacity="0.95" stroke-linecap="round" fill="none"></path><path d="M472.8 45.9 L485.4 202.1" stroke="#cb9a70" stroke-width="20" opacity="0.95" stroke-linecap="round" fill="none"></path><path d="M630.6 68.6 L755.0 39.5" stroke="#cb9a70" stroke-width="20" opacity="0.95" stroke-linecap="round" fill="none"></path><path d="M630.6 68.6 L500.1 128.6" stroke="#cb9a70" stroke-width="20" opacity="0.95" stroke-linecap="round" fill="none"></path><path d="M630.6 68.6 L638.3 115.1" stroke="#cb9a70" stroke-width="20" opacity="0.95" stroke-linecap="round" fill="none"></path><path d="M630.6 68.6 L771.8 116.8" stroke="#cb9a70" stroke-width="20" opacity="0.95" stroke-linecap="round" fill="none"></path><path d="M630.6 68.6 L603.2 210.8" stroke="#cb9a70" stroke-width="20" opacity="0.95" stroke-linecap="round" fill="none"></path><path d="M755.0 39.5 L638.3 115.1" stroke="#cb9a70" stroke-width="20" opacity="0.95" stroke-linecap="round" fill="none"></path><path d="M755.0 39.5 L771.8 116.8" stroke="#cb9a70" stroke-width="20" opacity="0.95" stroke-linecap="round" fill="none"></path><path d="M755.0 39.5 L747.5 207.7" stroke="#cb9a70" stroke-width="20" opacity="0.95" stroke-linecap="round" fill="none"></path><path d="M49.2 123.8 L184.4 134.8" stroke="#cb9a70" stroke-width="20" opacity="0.95" stroke-linecap="round" fill="none"></path><path d="M49.2 123.8 L39.5 238.6" stroke="#cb9a70" stroke-width="20" opacity="0.95" stroke-linecap="round" fill="none"></path><path d="M184.4 134.8 L341.0 149.3" stroke="#cb9a70" stroke-width="20" opacity="0.95" stroke-linecap="round" fill="none"></path><path d="M184.4 134.8 L194.7 240.0" stroke="#cb9a70" stroke-width="20" opacity="0.95" stroke-linecap="round" fill="none"></path><path d="M341.0 149.3 L500.1 128.6" stroke="#cb9a70" stroke-width="20" opacity="0.95" stroke-linecap="round" fill="none"></path><path d="M341.0 149.3 L194.7 240.0" stroke="#cb9a70" stroke-width="20" opacity="0.95" stroke-linecap="round" fill="none"></path><path d="M341.0 149.3 L354.9 205.9" stroke="#cb9a70" stroke-width="20" opacity="0.95" stroke-linecap="round" fill="none"></path><path d="M341.0 149.3 L485.4 202.1" stroke="#cb9a70" stroke-width="20" opacity="0.95" stroke-linecap="round" fill="none"></path><path d="M341.0 149.3 L351.8 303.4" stroke="#cb9a70" stroke-width="20" opacity="0.95" stroke-linecap="round" fill="none"></path><path d="M500.1 128.6 L638.3 115.1" stroke="#cb9a70" stroke-width="20" opacity="0.95" stroke-linecap="round" fill="none"></path><path d="M500.1 128.6 L354.9 205.9" stroke="#cb9a70" stroke-width="20" opacity="0.95" stroke-linecap="round" fill="none"></path><path d="M500.1 128.6 L485.4 202.1" stroke="#cb9a70" stroke-width="20" opacity="0.95" stroke-linecap="round" fill="none"></path><path d="M500.1 128.6 L603.2 210.8" stroke="#cb9a70" stroke-width="20" opacity="0.95" stroke-linecap="round" fill="none"></path><path d="M500.1 128.6 L459.3 292.1" stroke="#cb9a70" stroke-width="20" opacity="0.95" stroke-linecap="round" fill="none"></path><path d="M638.3 115.1 L771.8 116.8" stroke="#cb9a70" stroke-width="20" opacity="0.95" stroke-linecap="round" fill="none"></path><path d="M638.3 115.1 L603.2 210.8" stroke="#cb9a70" stroke-width="20" opacity="0.95" stroke-linecap="round" fill="none"></path><path d="M638.3 115.1 L747.5 207.7" stroke="#cb9a70" stroke-width="20" opacity="0.95" stroke-linecap="round" fill="none"></path><path d="M771.8 116.8 L747.5 207.7" stroke="#cb9a70" stroke-width="20" opacity="0.95" stroke-linecap="round" fill="none"></path><path d="M39.5 238.6 L194.7 240.0" stroke="#cb9a70" stroke-width="20" opacity="0.95" stroke-linecap="round" fill="none"></path><path d="M39.5 238.6 L59.3 305.2" stroke="#cb9a70" stroke-width="20" opacity="0.95" stroke-linecap="round" fill="none"></path><path d="M39.5 238.6 L192.6 318.0" stroke="#cb9a70" stroke-width="20" opacity="0.95" stroke-linecap="round" fill="none"></path><path d="M39.5 238.6 L44.6 379.2" stroke="#cb9a70" stroke-width="20" opacity="0.95" stroke-linecap="round" fill="none"></path><path d="M194.7 240.0 L354.9 205.9" stroke="#cb9a70" stroke-width="20" opacity="0.95" stroke-linecap="round" fill="none"></path><path d="M194.7 240.0 L59.3 305.2" stroke="#cb9a70" stroke-width="20" opacity="0.95" stroke-linecap="round" fill="none"></path><path d="M194.7 240.0 L192.6 318.0" stroke="#cb9a70" stroke-width="20" opacity="0.95" stroke-linecap="round" fill="none"></path><path d="M194.7 240.0 L351.8 303.4" stroke="#cb9a70" stroke-width="20" opacity="0.95" stroke-linecap="round" fill="none"></path><path d="M194.7 240.0 L211.5 395.8" stroke="#cb9a70" stroke-width="20" opacity="0.95" stroke-linecap="round" fill="none"></path><path d="M354.9 205.9 L485.4 202.1" stroke="#cb9a70" stroke-width="20" opacity="0.95" stroke-linecap="round" fill="none"></path><path d="M354.9 205.9 L351.8 303.4" stroke="#cb9a70" stroke-width="20" opacity="0.95" stroke-linecap="round" fill="none"></path><path d="M354.9 205.9 L459.3 292.1" stroke="#cb9a70" stroke-width="20" opacity="0.95" stroke-linecap="round" fill="none"></path><path d="M485.4 202.1 L603.2 210.8" stroke="#cb9a70" stroke-width="20" opacity="0.95" stroke-linecap="round" fill="none"></path><path d="M485.4 202.1 L351.8 303.4" stroke="#cb9a70" stroke-width="20" opacity="0.95" stroke-linecap="round" fill="none"></path><path d="M485.4 202.1 L459.3 292.1" stroke="#cb9a70" stroke-width="20" opacity="0.95" stroke-linecap="round" fill="none"></path><path d="M485.4 202.1 L614.4 290.5" stroke="#cb9a70" stroke-width="20" opacity="0.95" stroke-linecap="round" fill="none"></path><path d="M603.2 210.8 L747.5 207.7" stroke="#cb9a70" stroke-width="20" opacity="0.95" stroke-linecap="round" fill="none"></path><path d="M603.2 210.8 L459.3 292.1" stroke="#cb9a70" stroke-width="20" opacity="0.95" stroke-linecap="round" fill="none"></path><path d="M603.2 210.8 L614.4 290.5" stroke="#cb9a70" stroke-width="20" opacity="0.95" stroke-linecap="round" fill="none"></path><path d="M747.5 207.7 L614.4 290.5" stroke="#cb9a70" stroke-width="20" opacity="0.95" stroke-linecap="round" fill="none"></path><path d="M747.5 207.7 L759.7 308.2" stroke="#cb9a70" stroke-width="20" opacity="0.95" stroke-linecap="round" fill="none"></path><path d="M59.3 305.2 L192.6 318.0" stroke="#cb9a70" stroke-width="20" opacity="0.95" stroke-linecap="round" fill="none"></path><path d="M59.3 305.2 L44.6 379.2" stroke="#cb9a70" stroke-width="20" opacity="0.95" stroke-linecap="round" fill="none"></path><path d="M192.6 318.0 L351.8 303.4" stroke="#cb9a70" stroke-width="20" opacity="0.95" stroke-linecap="round" fill="none"></path><path d="M192.6 318.0 L44.6 379.2" stroke="#cb9a70" stroke-width="20" opacity="0.95" stroke-linecap="round" fill="none"></path><path d="M192.6 318.0 L211.5 395.8" stroke="#cb9a70" stroke-width="20" opacity="0.95" stroke-linecap="round" fill="none"></path><path d="M192.6 318.0 L333.1 387.5" stroke="#cb9a70" stroke-width="20" opacity="0.95" stroke-linecap="round" fill="none"></path><path d="M351.8 303.4 L459.3 292.1" stroke="#cb9a70" stroke-width="20" opacity="0.95" stroke-linecap="round" fill="none"></path><path d="M351.8 303.4 L211.5 395.8" stroke="#cb9a70" stroke-width="20" opacity="0.95" stroke-linecap="round" fill="none"></path><path d="M351.8 303.4 L333.1 387.5" stroke="#cb9a70" stroke-width="20" opacity="0.95" stroke-linecap="round" fill="none"></path><path d="M351.8 303.4 L471.0 394.8" stroke="#cb9a70" stroke-width="20" opacity="0.95" stroke-linecap="round" fill="none"></path><path d="M459.3 292.1 L614.4 290.5" stroke="#cb9a70" stroke-width="20" opacity="0.95" stroke-linecap="round" fill="none"></path><path d="M459.3 292.1 L333.1 387.5" stroke="#cb9a70" stroke-width="20" opacity="0.95" stroke-linecap="round" fill="none"></path><path d="M459.3 292.1 L471.0 394.8" stroke="#cb9a70" stroke-width="20" opacity="0.95" stroke-linecap="round" fill="none"></path><path d="M614.4 290.5 L759.7 308.2" stroke="#cb9a70" stroke-width="20" opacity="0.95" stroke-linecap="round" fill="none"></path><path d="M614.4 290.5 L623.2 396.6" stroke="#cb9a70" stroke-width="20" opacity="0.95" stroke-linecap="round" fill="none"></path><path d="M759.7 308.2 L623.2 396.6" stroke="#cb9a70" stroke-width="20" opacity="0.95" stroke-linecap="round" fill="none"></path><path d="M759.7 308.2 L777.1 386.6" stroke="#cb9a70" stroke-width="20" opacity="0.95" stroke-linecap="round" fill="none"></path><path d="M44.6 379.2 L211.5 395.8" stroke="#cb9a70" stroke-width="20" opacity="0.95" stroke-linecap="round" fill="none"></path><path d="M211.5 395.8 L333.1 387.5" stroke="#cb9a70" stroke-width="20" opacity="0.95" stroke-linecap="round" fill="none"></path><path d="M333.1 387.5 L471.0 394.8" stroke="#cb9a70" stroke-width="20" opacity="0.95" stroke-linecap="round" fill="none"></path><path d="M471.0 394.8 L623.2 396.6" stroke="#cb9a70" stroke-width="20" opacity="0.95" stroke-linecap="round" fill="none"></path><path d="M623.2 396.6 L777.1 386.6" stroke="#cb9a70" stroke-width="20" opacity="0.95" stroke-linecap="round" fill="none"></path><path d="M36.4 59.7 L206.5 47.2" stroke="#efc8a4" stroke-width="15" opacity="1" stroke-linecap="round" fill="none"></path><path d="M36.4 59.7 L49.2 123.8" stroke="#efc8a4" stroke-width="15" opacity="1" stroke-linecap="round" fill="none"></path><path d="M36.4 59.7 L184.4 134.8" stroke="#efc8a4" stroke-width="15" opacity="1" stroke-linecap="round" fill="none"></path><path d="M206.5 47.2 L343.0 35.7" stroke="#efc8a4" stroke-width="15" opacity="1" stroke-linecap="round" fill="none"></path><path d="M206.5 47.2 L49.2 123.8" stroke="#efc8a4" stroke-width="15" opacity="1" stroke-linecap="round" fill="none"></path><path d="M206.5 47.2 L184.4 134.8" stroke="#efc8a4" stroke-width="15" opacity="1" stroke-linecap="round" fill="none"></path><path d="M206.5 47.2 L341.0 149.3" stroke="#efc8a4" stroke-width="15" opacity="1" stroke-linecap="round" fill="none"></path><path d="M343.0 35.7 L472.8 45.9" stroke="#efc8a4" stroke-width="15" opacity="1" stroke-linecap="round" fill="none"></path><path d="M343.0 35.7 L341.0 149.3" stroke="#efc8a4" stroke-width="15" opacity="1" stroke-linecap="round" fill="none"></path><path d="M343.0 35.7 L354.9 205.9" stroke="#efc8a4" stroke-width="15" opacity="1" stroke-linecap="round" fill="none"></path><path d="M472.8 45.9 L630.6 68.6" stroke="#efc8a4" stroke-width="15" opacity="1" stroke-linecap="round" fill="none"></path><path d="M472.8 45.9 L341.0 149.3" stroke="#efc8a4" stroke-width="15" opacity="1" stroke-linecap="round" fill="none"></path><path d="M472.8 45.9 L500.1 128.6" stroke="#efc8a4" stroke-width="15" opacity="1" stroke-linecap="round" fill="none"></path><path d="M472.8 45.9 L485.4 202.1" stroke="#efc8a4" stroke-width="15" opacity="1" stroke-linecap="round" fill="none"></path><path d="M630.6 68.6 L755.0 39.5" stroke="#efc8a4" stroke-width="15" opacity="1" stroke-linecap="round" fill="none"></path><path d="M630.6 68.6 L500.1 128.6" stroke="#efc8a4" stroke-width="15" opacity="1" stroke-linecap="round" fill="none"></path><path d="M630.6 68.6 L638.3 115.1" stroke="#efc8a4" stroke-width="15" opacity="1" stroke-linecap="round" fill="none"></path><path d="M630.6 68.6 L771.8 116.8" stroke="#efc8a4" stroke-width="15" opacity="1" stroke-linecap="round" fill="none"></path><path d="M630.6 68.6 L603.2 210.8" stroke="#efc8a4" stroke-width="15" opacity="1" stroke-linecap="round" fill="none"></path><path d="M755.0 39.5 L638.3 115.1" stroke="#efc8a4" stroke-width="15" opacity="1" stroke-linecap="round" fill="none"></path><path d="M755.0 39.5 L771.8 116.8" stroke="#efc8a4" stroke-width="15" opacity="1" stroke-linecap="round" fill="none"></path><path d="M755.0 39.5 L747.5 207.7" stroke="#efc8a4" stroke-width="15" opacity="1" stroke-linecap="round" fill="none"></path><path d="M49.2 123.8 L184.4 134.8" stroke="#efc8a4" stroke-width="15" opacity="1" stroke-linecap="round" fill="none"></path><path d="M49.2 123.8 L39.5 238.6" stroke="#efc8a4" stroke-width="15" opacity="1" stroke-linecap="round" fill="none"></path><path d="M184.4 134.8 L341.0 149.3" stroke="#efc8a4" stroke-width="15" opacity="1" stroke-linecap="round" fill="none"></path><path d="M184.4 134.8 L194.7 240.0" stroke="#efc8a4" stroke-width="15" opacity="1" stroke-linecap="round" fill="none"></path><path d="M341.0 149.3 L500.1 128.6" stroke="#efc8a4" stroke-width="15" opacity="1" stroke-linecap="round" fill="none"></path><path d="M341.0 149.3 L194.7 240.0" stroke="#efc8a4" stroke-width="15" opacity="1" stroke-linecap="round" fill="none"></path><path d="M341.0 149.3 L354.9 205.9" stroke="#efc8a4" stroke-width="15" opacity="1" stroke-linecap="round" fill="none"></path><path d="M341.0 149.3 L485.4 202.1" stroke="#efc8a4" stroke-width="15" opacity="1" stroke-linecap="round" fill="none"></path><path d="M341.0 149.3 L351.8 303.4" stroke="#efc8a4" stroke-width="15" opacity="1" stroke-linecap="round" fill="none"></path><path d="M500.1 128.6 L638.3 115.1" stroke="#efc8a4" stroke-width="15" opacity="1" stroke-linecap="round" fill="none"></path><path d="M500.1 128.6 L354.9 205.9" stroke="#efc8a4" stroke-width="15" opacity="1" stroke-linecap="round" fill="none"></path><path d="M500.1 128.6 L485.4 202.1" stroke="#efc8a4" stroke-width="15" opacity="1" stroke-linecap="round" fill="none"></path><path d="M500.1 128.6 L603.2 210.8" stroke="#efc8a4" stroke-width="15" opacity="1" stroke-linecap="round" fill="none"></path><path d="M500.1 128.6 L459.3 292.1" stroke="#efc8a4" stroke-width="15" opacity="1" stroke-linecap="round" fill="none"></path><path d="M638.3 115.1 L771.8 116.8" stroke="#efc8a4" stroke-width="15" opacity="1" stroke-linecap="round" fill="none"></path><path d="M638.3 115.1 L603.2 210.8" stroke="#efc8a4" stroke-width="15" opacity="1" stroke-linecap="round" fill="none"></path><path d="M638.3 115.1 L747.5 207.7" stroke="#efc8a4" stroke-width="15" opacity="1" stroke-linecap="round" fill="none"></path><path d="M771.8 116.8 L747.5 207.7" stroke="#efc8a4" stroke-width="15" opacity="1" stroke-linecap="round" fill="none"></path><path d="M39.5 238.6 L194.7 240.0" stroke="#efc8a4" stroke-width="15" opacity="1" stroke-linecap="round" fill="none"></path><path d="M39.5 238.6 L59.3 305.2" stroke="#efc8a4" stroke-width="15" opacity="1" stroke-linecap="round" fill="none"></path><path d="M39.5 238.6 L192.6 318.0" stroke="#efc8a4" stroke-width="15" opacity="1" stroke-linecap="round" fill="none"></path><path d="M39.5 238.6 L44.6 379.2" stroke="#efc8a4" stroke-width="15" opacity="1" stroke-linecap="round" fill="none"></path><path d="M194.7 240.0 L354.9 205.9" stroke="#efc8a4" stroke-width="15" opacity="1" stroke-linecap="round" fill="none"></path><path d="M194.7 240.0 L59.3 305.2" stroke="#efc8a4" stroke-width="15" opacity="1" stroke-linecap="round" fill="none"></path><path d="M194.7 240.0 L192.6 318.0" stroke="#efc8a4" stroke-width="15" opacity="1" stroke-linecap="round" fill="none"></path><path d="M194.7 240.0 L351.8 303.4" stroke="#efc8a4" stroke-width="15" opacity="1" stroke-linecap="round" fill="none"></path><path d="M194.7 240.0 L211.5 395.8" stroke="#efc8a4" stroke-width="15" opacity="1" stroke-linecap="round" fill="none"></path><path d="M354.9 205.9 L485.4 202.1" stroke="#efc8a4" stroke-width="15" opacity="1" stroke-linecap="round" fill="none"></path><path d="M354.9 205.9 L351.8 303.4" stroke="#efc8a4" stroke-width="15" opacity="1" stroke-linecap="round" fill="none"></path><path d="M354.9 205.9 L459.3 292.1" stroke="#efc8a4" stroke-width="15" opacity="1" stroke-linecap="round" fill="none"></path><path d="M485.4 202.1 L603.2 210.8" stroke="#efc8a4" stroke-width="15" opacity="1" stroke-linecap="round" fill="none"></path><path d="M485.4 202.1 L351.8 303.4" stroke="#efc8a4" stroke-width="15" opacity="1" stroke-linecap="round" fill="none"></path><path d="M485.4 202.1 L459.3 292.1" stroke="#efc8a4" stroke-width="15" opacity="1" stroke-linecap="round" fill="none"></path><path d="M485.4 202.1 L614.4 290.5" stroke="#efc8a4" stroke-width="15" opacity="1" stroke-linecap="round" fill="none"></path><path d="M603.2 210.8 L747.5 207.7" stroke="#efc8a4" stroke-width="15" opacity="1" stroke-linecap="round" fill="none"></path><path d="M603.2 210.8 L459.3 292.1" stroke="#efc8a4" stroke-width="15" opacity="1" stroke-linecap="round" fill="none"></path><path d="M603.2 210.8 L614.4 290.5" stroke="#efc8a4" stroke-width="15" opacity="1" stroke-linecap="round" fill="none"></path><path d="M747.5 207.7 L614.4 290.5" stroke="#efc8a4" stroke-width="15" opacity="1" stroke-linecap="round" fill="none"></path><path d="M747.5 207.7 L759.7 308.2" stroke="#efc8a4" stroke-width="15" opacity="1" stroke-linecap="round" fill="none"></path><path d="M59.3 305.2 L192.6 318.0" stroke="#efc8a4" stroke-width="15" opacity="1" stroke-linecap="round" fill="none"></path><path d="M59.3 305.2 L44.6 379.2" stroke="#efc8a4" stroke-width="15" opacity="1" stroke-linecap="round" fill="none"></path><path d="M192.6 318.0 L351.8 303.4" stroke="#efc8a4" stroke-width="15" opacity="1" stroke-linecap="round" fill="none"></path><path d="M192.6 318.0 L44.6 379.2" stroke="#efc8a4" stroke-width="15" opacity="1" stroke-linecap="round" fill="none"></path><path d="M192.6 318.0 L211.5 395.8" stroke="#efc8a4" stroke-width="15" opacity="1" stroke-linecap="round" fill="none"></path><path d="M192.6 318.0 L333.1 387.5" stroke="#efc8a4" stroke-width="15" opacity="1" stroke-linecap="round" fill="none"></path><path d="M351.8 303.4 L459.3 292.1" stroke="#efc8a4" stroke-width="15" opacity="1" stroke-linecap="round" fill="none"></path><path d="M351.8 303.4 L211.5 395.8" stroke="#efc8a4" stroke-width="15" opacity="1" stroke-linecap="round" fill="none"></path><path d="M351.8 303.4 L333.1 387.5" stroke="#efc8a4" stroke-width="15" opacity="1" stroke-linecap="round" fill="none"></path><path d="M351.8 303.4 L471.0 394.8" stroke="#efc8a4" stroke-width="15" opacity="1" stroke-linecap="round" fill="none"></path><path d="M459.3 292.1 L614.4 290.5" stroke="#efc8a4" stroke-width="15" opacity="1" stroke-linecap="round" fill="none"></path><path d="M459.3 292.1 L333.1 387.5" stroke="#efc8a4" stroke-width="15" opacity="1" stroke-linecap="round" fill="none"></path><path d="M459.3 292.1 L471.0 394.8" stroke="#efc8a4" stroke-width="15" opacity="1" stroke-linecap="round" fill="none"></path><path d="M614.4 290.5 L759.7 308.2" stroke="#efc8a4" stroke-width="15" opacity="1" stroke-linecap="round" fill="none"></path><path d="M614.4 290.5 L623.2 396.6" stroke="#efc8a4" stroke-width="15" opacity="1" stroke-linecap="round" fill="none"></path><path d="M759.7 308.2 L623.2 396.6" stroke="#efc8a4" stroke-width="15" opacity="1" stroke-linecap="round" fill="none"></path><path d="M759.7 308.2 L777.1 386.6" stroke="#efc8a4" stroke-width="15" opacity="1" stroke-linecap="round" fill="none"></path><path d="M44.6 379.2 L211.5 395.8" stroke="#efc8a4" stroke-width="15" opacity="1" stroke-linecap="round" fill="none"></path><path d="M211.5 395.8 L333.1 387.5" stroke="#efc8a4" stroke-width="15" opacity="1" stroke-linecap="round" fill="none"></path><path d="M333.1 387.5 L471.0 394.8" stroke="#efc8a4" stroke-width="15" opacity="1" stroke-linecap="round" fill="none"></path><path d="M471.0 394.8 L623.2 396.6" stroke="#efc8a4" stroke-width="15" opacity="1" stroke-linecap="round" fill="none"></path><path d="M623.2 396.6 L777.1 386.6" stroke="#efc8a4" stroke-width="15" opacity="1" stroke-linecap="round" fill="none"></path><ellipse cx="36.4" cy="59.7" rx="12.0" ry="12.0" fill="#efc8a4" stroke="#cb9a70" stroke-width="2"></ellipse><ellipse cx="206.5" cy="47.2" rx="12.0" ry="12.0" fill="#efc8a4" stroke="#cb9a70" stroke-width="2"></ellipse><ellipse cx="343.0" cy="35.7" rx="12.0" ry="12.0" fill="#efc8a4" stroke="#cb9a70" stroke-width="2"></ellipse><ellipse cx="472.8" cy="45.9" rx="12.0" ry="12.0" fill="#efc8a4" stroke="#cb9a70" stroke-width="2"></ellipse><ellipse cx="630.6" cy="68.6" rx="12.0" ry="12.0" fill="#efc8a4" stroke="#cb9a70" stroke-width="2"></ellipse><ellipse cx="755.0" cy="39.5" rx="12.0" ry="12.0" fill="#efc8a4" stroke="#cb9a70" stroke-width="2"></ellipse><ellipse cx="49.2" cy="123.8" rx="12.0" ry="12.0" fill="#efc8a4" stroke="#cb9a70" stroke-width="2"></ellipse><ellipse cx="184.4" cy="134.8" rx="12.0" ry="12.0" fill="#efc8a4" stroke="#cb9a70" stroke-width="2"></ellipse><ellipse cx="341.0" cy="149.3" rx="12.0" ry="12.0" fill="#efc8a4" stroke="#cb9a70" stroke-width="2"></ellipse><ellipse cx="500.1" cy="128.6" rx="12.0" ry="12.0" fill="#efc8a4" stroke="#cb9a70" stroke-width="2"></ellipse><ellipse cx="638.3" cy="115.1" rx="12.0" ry="12.0" fill="#efc8a4" stroke="#cb9a70" stroke-width="2"></ellipse><ellipse cx="771.8" cy="116.8" rx="12.0" ry="12.0" fill="#efc8a4" stroke="#cb9a70" stroke-width="2"></ellipse><ellipse cx="39.5" cy="238.6" rx="12.0" ry="12.0" fill="#efc8a4" stroke="#cb9a70" stroke-width="2"></ellipse><ellipse cx="194.7" cy="240.0" rx="12.0" ry="12.0" fill="#efc8a4" stroke="#cb9a70" stroke-width="2"></ellipse><ellipse cx="354.9" cy="205.9" rx="12.0" ry="12.0" fill="#efc8a4" stroke="#cb9a70" stroke-width="2"></ellipse><ellipse cx="485.4" cy="202.1" rx="12.0" ry="12.0" fill="#efc8a4" stroke="#cb9a70" stroke-width="2"></ellipse><ellipse cx="603.2" cy="210.8" rx="12.0" ry="12.0" fill="#efc8a4" stroke="#cb9a70" stroke-width="2"></ellipse><ellipse cx="747.5" cy="207.7" rx="12.0" ry="12.0" fill="#efc8a4" stroke="#cb9a70" stroke-width="2"></ellipse><ellipse cx="59.3" cy="305.2" rx="12.0" ry="12.0" fill="#efc8a4" stroke="#cb9a70" stroke-width="2"></ellipse><ellipse cx="192.6" cy="318.0" rx="12.0" ry="12.0" fill="#efc8a4" stroke="#cb9a70" stroke-width="2"></ellipse><ellipse cx="351.8" cy="303.4" rx="12.0" ry="12.0" fill="#efc8a4" stroke="#cb9a70" stroke-width="2"></ellipse><ellipse cx="459.3" cy="292.1" rx="12.0" ry="12.0" fill="#efc8a4" stroke="#cb9a70" stroke-width="2"></ellipse><ellipse cx="614.4" cy="290.5" rx="12.0" ry="12.0" fill="#efc8a4" stroke="#cb9a70" stroke-width="2"></ellipse><ellipse cx="759.7" cy="308.2" rx="12.0" ry="12.0" fill="#efc8a4" stroke="#cb9a70" stroke-width="2"></ellipse><ellipse cx="44.6" cy="379.2" rx="12.0" ry="12.0" fill="#efc8a4" stroke="#cb9a70" stroke-width="2"></ellipse><ellipse cx="211.5" cy="395.8" rx="12.0" ry="12.0" fill="#efc8a4" stroke="#cb9a70" stroke-width="2"></ellipse><ellipse cx="333.1" cy="387.5" rx="12.0" ry="12.0" fill="#efc8a4" stroke="#cb9a70" stroke-width="2"></ellipse><ellipse cx="471.0" cy="394.8" rx="12.0" ry="12.0" fill="#efc8a4" stroke="#cb9a70" stroke-width="2"></ellipse><ellipse cx="623.2" cy="396.6" rx="12.0" ry="12.0" fill="#efc8a4" stroke="#cb9a70" stroke-width="2"></ellipse><ellipse cx="777.1" cy="386.6" rx="12.0" ry="12.0" fill="#efc8a4" stroke="#cb9a70" stroke-width="2"></ellipse><ellipse cx="105.3" cy="54.6" rx="2.6" ry="2.6" fill="#5a3a80" stroke="none" stroke-width="0"></ellipse><ellipse cx="91.6" cy="87.7" rx="2.6" ry="2.6" fill="#5a3a80" stroke="none" stroke-width="0"></ellipse><ellipse cx="387.8" cy="39.2" rx="2.6" ry="2.6" fill="#5a3a80" stroke="none" stroke-width="0"></ellipse><ellipse cx="342.2" cy="80.4" rx="2.6" ry="2.6" fill="#5a3a80" stroke="none" stroke-width="0"></ellipse><ellipse cx="581.7" cy="61.5" rx="2.6" ry="2.6" fill="#5a3a80" stroke="none" stroke-width="0"></ellipse><ellipse cx="477.4" cy="103.0" rx="2.6" ry="2.6" fill="#5a3a80" stroke="none" stroke-width="0"></ellipse><ellipse cx="540.8" cy="109.9" rx="2.6" ry="2.6" fill="#5a3a80" stroke="none" stroke-width="0"></ellipse><ellipse cx="635.1" cy="95.9" rx="2.6" ry="2.6" fill="#5a3a80" stroke="none" stroke-width="0"></ellipse><ellipse cx="615.1" cy="149.3" rx="2.6" ry="2.6" fill="#5a3a80" stroke="none" stroke-width="0"></ellipse><ellipse cx="687.4" cy="83.3" rx="2.6" ry="2.6" fill="#5a3a80" stroke="none" stroke-width="0"></ellipse><ellipse cx="752.1" cy="105.2" rx="2.6" ry="2.6" fill="#5a3a80" stroke="none" stroke-width="0"></ellipse><ellipse cx="43.5" cy="191.0" rx="2.6" ry="2.6" fill="#5a3a80" stroke="none" stroke-width="0"></ellipse><ellipse cx="268.2" cy="142.5" rx="2.6" ry="2.6" fill="#5a3a80" stroke="none" stroke-width="0"></ellipse><ellipse cx="190.9" cy="200.9" rx="2.6" ry="2.6" fill="#5a3a80" stroke="none" stroke-width="0"></ellipse><ellipse cx="400.1" cy="170.9" rx="2.6" ry="2.6" fill="#5a3a80" stroke="none" stroke-width="0"></ellipse><ellipse cx="580.5" cy="120.7" rx="2.6" ry="2.6" fill="#5a3a80" stroke="none" stroke-width="0"></ellipse><ellipse cx="445.8" cy="157.5" rx="2.6" ry="2.6" fill="#5a3a80" stroke="none" stroke-width="0"></ellipse><ellipse cx="571.9" cy="185.8" rx="2.6" ry="2.6" fill="#5a3a80" stroke="none" stroke-width="0"></ellipse><ellipse cx="129.9" cy="239.4" rx="2.6" ry="2.6" fill="#5a3a80" stroke="none" stroke-width="0"></ellipse><ellipse cx="47.5" cy="265.6" rx="2.6" ry="2.6" fill="#5a3a80" stroke="none" stroke-width="0"></ellipse><ellipse cx="194.1" cy="264.6" rx="2.6" ry="2.6" fill="#5a3a80" stroke="none" stroke-width="0"></ellipse><ellipse cx="395.8" cy="204.7" rx="2.6" ry="2.6" fill="#5a3a80" stroke="none" stroke-width="0"></ellipse><ellipse cx="408.9" cy="250.5" rx="2.6" ry="2.6" fill="#5a3a80" stroke="none" stroke-width="0"></ellipse><ellipse cx="101.8" cy="309.3" rx="2.6" ry="2.6" fill="#5a3a80" stroke="none" stroke-width="0"></ellipse><ellipse cx="49.2" cy="356.1" rx="2.6" ry="2.6" fill="#5a3a80" stroke="none" stroke-width="0"></ellipse><ellipse cx="252.2" cy="312.6" rx="2.6" ry="2.6" fill="#5a3a80" stroke="none" stroke-width="0"></ellipse><ellipse cx="201.9" cy="356.1" rx="2.6" ry="2.6" fill="#5a3a80" stroke="none" stroke-width="0"></ellipse><ellipse cx="259.4" cy="351.1" rx="2.6" ry="2.6" fill="#5a3a80" stroke="none" stroke-width="0"></ellipse><ellipse cx="390.7" cy="299.3" rx="2.6" ry="2.6" fill="#5a3a80" stroke="none" stroke-width="0"></ellipse><ellipse cx="397.0" cy="338.1" rx="2.6" ry="2.6" fill="#5a3a80" stroke="none" stroke-width="0"></ellipse><ellipse cx="464.5" cy="337.2" rx="2.6" ry="2.6" fill="#5a3a80" stroke="none" stroke-width="0"></ellipse><ellipse cx="690.6" cy="352.9" rx="2.6" ry="2.6" fill="#5a3a80" stroke="none" stroke-width="0"></ellipse><ellipse cx="769.5" cy="352.6" rx="2.6" ry="2.6" fill="#5a3a80" stroke="none" stroke-width="0"></ellipse><ellipse cx="288.2" cy="390.6" rx="2.6" ry="2.6" fill="#5a3a80" stroke="none" stroke-width="0"></ellipse><ellipse cx="703.3" cy="391.4" rx="2.6" ry="2.6" fill="#5a3a80" stroke="none" stroke-width="0"></ellipse></svg>